{
  "accessors": [
    {
      "bufferView": 2,
      "componentType": 5126,
      "count": 11506,
      "max": [
        2.1046123504638672,
        9.8144798278808594,
        2.8411946296691895
      ],
      "min": [
        -2.1046125888824463,
        -9.8151941299438477,
        -2.8422796726226807
      ],
      "type": "VEC3"
    },
    {
      "bufferView": 2,
      "byteOffset": 138072,
      "componentType": 5126,
      "count": 11506,
      "max": [
        1,
        1,
        0.99999886751174927
      ],
      "min": [
        -1,
        -0.99999994039535522,
        -1
      ],
      "type": "VEC3"
    },
    {
      "bufferView": 3,
      "componentType": 5126,
      "count": 11506,
      "max": [
        1,
        0.99999046325683594,
        0.99999994039535522,
        1
      ],
      "min": [
        -1,
        -0.99999487400054932,
        -0.99999994039535522,
        -1
      ],
      "type": "VEC4"
    },
    {
      "bufferView": 1,
      "componentType": 5126,
      "count": 11506,
      "max": [
        0.99857240915298462,
        0.99839282035827637
      ],
      "min": [
        0.0016635331558063626,
        0.0014556967653334141
      ],
      "type": "VEC2"
    },
    {
      "bufferView": 1,
      "byteOffset": 92048,
      "componentType": 5126,
      "count": 11506,
      "max": [
        0.99857240915298462,
        0.99839282035827637
      ],
      "min": [
        0.0016635331558063626,
        0.0014556967653334141
      ],
      "type": "VEC2"
    },
    {
      "bufferView": 0,
      "componentType": 5125,
      "count": 38586,
      "max": [
        11505
      ],
      "min": [
        0
      ],
      "type": "SCALAR"
    }
  ],
  "asset": {
    "extras": {
      "author": "Comrade1280 (https://sketchfab.com/comrade1280)",
      "license": "CC-BY-4.0 (http://creativecommons.org/licenses/by/4.0/)",
      "source": "https://sketchfab.com/models/63ce372c1aa843e98bf1548109e055d8",
      "title": "Space Ship"
    },
    "generator": "Sketchfab-3.47.8",
    "version": "2.0"
  },
  "bufferViews": [
    {
      "buffer": 0,
      "byteLength": 154344,
      "byteOffset": 0,
      "name": "floatBufferViews",
      "target": 34963
    },
    {
      "buffer": 0,
      "byteLength": 184096,
      "byteOffset": 154344,
      "byteStride": 8,
      "name": "floatBufferViews",
      "target": 34962
    },
    {
      "buffer": 0,
      "byteLength": 276144,
      "byteOffset": 338440,
      "byteStride": 12,
      "name": "floatBufferViews",
      "target": 34962
    },
    {
      "buffer": 0,
      "byteLength": 184096,
      "byteOffset": 614584,
      "byteStride": 16,
      "name": "floatBufferViews",
      "target": 34962
    }
  ],
  "buffers": [
    {
      "byteLength": 798680,
      "uri": "scene.bin"
    }
  ],
  "images": [
    {
      "uri": "textures/03_-_Default_metallicRoughness.png"
    },
    {
      "uri": "textures/03_-_Default_normal.png"
    }
  ],
  "materials": [
    {
      "doubleSided": false,
      "name": "03_-_Default",
      "normalTexture": {
        "index": 1,
        "scale": 1,
        "texCoord": 0
      },
      "occlusionTexture": {
        "index": 0,
        "strength": 1,
        "texCoord": 0
      },
      "pbrMetallicRoughness": {
        "baseColorFactor": [
          0.079000132000000001,
          0.079408173499999998,
          0.080446513600000005,
          1
        ],
        "metallicFactor": 1,
        "metallicRoughnessTexture": {
          "index": 0,
          "texCoord": 0
        },
        "roughnessFactor": 0.30659298779999999
      }
    }
  ],
  "meshes": [
    {
      "primitives": [
        {
          "attributes": {
            "NORMAL": 1,
            "POSITION": 0,
            "TANGENT": 2,
            "TEXCOORD_0": 3,
            "TEXCOORD_1": 4
          },
          "indices": 5,
          "material": 0,
          "mode": 4
        }
      ]
    }
  ],
  "nodes": [
    {
      "children": [
        1
      ],
      "name": "RootNode (gltf orientation matrix)",
      "rotation": [
        -0.70710678118654746,
        -0,
        -0,
        0.70710678118654757
      ]
    },
    {
      "children": [
        2
      ],
      "name": "RootNode (model correction matrix)"
    },
    {
      "children": [
        3
      ],
      "matrix": [
        1,
        0,
        0,
        0,
        0,
        0,
        1,
        0,
        0,
        -1,
        0,
        0,
        0,
        0,
        0,
        1
      ],
      "name": "79ff484f768047409e408db2f2757177.fbx"
    },
    {
      "children": [
        4
      ],
      "name": "RootNode"
    },
    {
      "children": [
        5
      ],
      "matrix": [
        1,
        0,
        0,
        0,
        0,
        2.2204460492503131e-16,
        -1,
        0,
        0,
        1,
        2.2204460492503131e-16,
        0,
        0,
        0,
        0,
        1
      ],
      "name": "cruiser"
    },
    {
      "mesh": 0,
      "name": ""
    }
  ],
  "samplers": [
    {
      "magFilter": 9729,
      "minFilter": 9987,
      "wrapS": 10497,
      "wrapT": 10497
    }
  ],
  "scene": 0,
  "scenes": [
    {
      "name": "OSG_Scene",
      "nodes": [
        0
      ]
    }
  ],
  "textures": [
    {
      "sampler": 0,
      "source": 0
    },
    {
      "sampler": 0,
      "source": 1
    }
  ]
}

