{
  "accessors": [
    {
      "bufferView": 2,
      "componentType": 5126,
      "count": 36857,
      "max": [
        0.97315001487731934,
        2.9415700435638428,
        1.3444900512695312
      ],
      "min": [
        -0.97315001487731934,
        -3.2153599262237549,
        -2.8666000366210938
      ],
      "type": "VEC3"
    },
    {
      "bufferView": 2,
      "byteOffset": 442284,
      "componentType": 5126,
      "count": 36857,
      "max": [
        1,
        1,
        1
      ],
      "min": [
        -1,
        -1,
        -1
      ],
      "type": "VEC3"
    },
    {
      "bufferView": 3,
      "componentType": 5126,
      "count": 36857,
      "max": [
        1,
        1,
        1,
        1
      ],
      "min": [
        -1,
        -1,
        -1,
        -1
      ],
      "type": "VEC4"
    },
    {
      "bufferView": 2,
      "byteOffset": 884568,
      "componentType": 5126,
      "count": 36857,
      "max": [
        0,
        0,
        0
      ],
      "min": [
        0,
        0,
        0
      ],
      "type": "VEC3"
    },
    {
      "bufferView": 1,
      "componentType": 5126,
      "count": 36857,
      "max": [
        0.98843997716903687,
        0.99418997764587402
      ],
      "min": [
        -0.0016400000313296914,
        0.0027199999894946814
      ],
      "type": "VEC2"
    },
    {
      "bufferView": 0,
      "componentType": 5125,
      "count": 176784,
      "max": [
        36856
      ],
      "min": [
        0
      ],
      "type": "SCALAR"
    },
    {
      "bufferView": 2,
      "byteOffset": 1326852,
      "componentType": 5126,
      "count": 3498,
      "max": [
        0.55914002656936646,
        2.9260799884796143,
        0.022420000284910202
      ],
      "min": [
        -0.55914002656936646,
        -0.10610999912023544,
        -1.4507100582122803
      ],
      "type": "VEC3"
    },
    {
      "bufferView": 2,
      "byteOffset": 1368828,
      "componentType": 5126,
      "count": 3498,
      "max": [
        0.99375718832015991,
        0.99961525201797485,
        0.99971002340316772
      ],
      "min": [
        -0.99375718832015991,
        -0.99989968538284302,
        -0.99971216917037964
      ],
      "type": "VEC3"
    },
    {
      "bufferView": 3,
      "byteOffset": 589712,
      "componentType": 5126,
      "count": 3498,
      "max": [
        0.99988919496536255,
        0.8906741738319397,
        0.99989855289459229,
        1
      ],
      "min": [
        -0.99988919496536255,
        -0.99971222877502441,
        -0.99976885318756104,
        -1
      ],
      "type": "VEC4"
    },
    {
      "bufferView": 1,
      "byteOffset": 294856,
      "componentType": 5126,
      "count": 3498,
      "max": [
        0.989329993724823,
        0.97148001194000244
      ],
      "min": [
        0.039650000631809235,
        0.019009999930858612
      ],
      "type": "VEC2"
    },
    {
      "bufferView": 0,
      "byteOffset": 707136,
      "componentType": 5125,
      "count": 17856,
      "max": [
        3497
      ],
      "min": [
        0
      ],
      "type": "SCALAR"
    }
  ],
  "asset": {
    "extras": {
      "author": "3DHaupt (https://sketchfab.com/dennish2010)",
      "license": "CC-BY-NC-4.0 (http://creativecommons.org/licenses/by-nc/4.0/)",
      "source": "https://sketchfab.com/models/tXQJZ7ajYLxQCSMtMy0GQ8bLm3B",
      "title": "45-E"
    },
    "generator": "Sketchfab-3.28.5",
    "version": "2.0"
  },
  "bufferViews": [
    {
      "buffer": 0,
      "byteLength": 778560,
      "byteOffset": 0,
      "name": "floatBufferViews",
      "target": 34963
    },
    {
      "buffer": 0,
      "byteLength": 322840,
      "byteOffset": 778560,
      "byteStride": 8,
      "name": "floatBufferViews",
      "target": 34962
    },
    {
      "buffer": 0,
      "byteLength": 1410804,
      "byteOffset": 1101400,
      "byteStride": 12,
      "name": "floatBufferViews",
      "target": 34962
    },
    {
      "buffer": 0,
      "byteLength": 645680,
      "byteOffset": 2512204,
      "byteStride": 16,
      "name": "floatBufferViews",
      "target": 34962
    }
  ],
  "buffers": [
    {
      "byteLength": 3157884,
      "uri": "scene.bin"
    }
  ],
  "images": [
    {
      "uri": "textures/Material.004_normal.png"
    },
    {
      "uri": "textures/ship_normal.png"
    },
    {
      "uri": "textures/ship_baseColor.jpeg"
    }
  ],
  "materials": [
    {
      "alphaMode": "BLEND",
      "doubleSided": true,
      "emissiveFactor": [
        0,
        0,
        0
      ],
      "name": "Material.004",
      "normalTexture": {
        "index": 0,
        "scale": 0.98999999999999999,
        "texCoord": 0
      },
      "pbrMetallicRoughness": {
        "baseColorFactor": [
          0.80000001190000003,
          0.80000001190000003,
          0.80000001190000003,
          0.22
        ],
        "metallicFactor": 1,
        "roughnessFactor": 0.20303987709999999
      }
    },
    {
      "doubleSided": true,
      "emissiveFactor": [
        0,
        0,
        0
      ],
      "name": "ship",
      "normalTexture": {
        "index": 1,
        "scale": 1,
        "texCoord": 0
      },
      "pbrMetallicRoughness": {
        "baseColorFactor": [
          0.61813421670000002,
          0.61813421670000002,
          0.61813421670000002,
          1
        ],
        "baseColorTexture": {
          "index": 2,
          "texCoord": 0
        },
        "metallicFactor": 1,
        "roughnessFactor": 0.56781975129999995
      }
    }
  ],
  "meshes": [
    {
      "name": "Cube.021_0",
      "primitives": [
        {
          "attributes": {
            "COLOR_0": 3,
            "NORMAL": 1,
            "POSITION": 0,
            "TANGENT": 2,
            "TEXCOORD_0": 4
          },
          "indices": 5,
          "material": 1,
          "mode": 4
        }
      ]
    },
    {
      "name": "Cube.004_0",
      "primitives": [
        {
          "attributes": {
            "NORMAL": 7,
            "POSITION": 6,
            "TANGENT": 8,
            "TEXCOORD_0": 9
          },
          "indices": 10,
          "material": 0,
          "mode": 4
        }
      ]
    }
  ],
  "nodes": [
    {
      "children": [
        1
      ],
      "name": "RootNode (gltf orientation matrix)",
      "rotation": [
        -0.70710678118654746,
        -0,
        -0,
        0.70710678118654757
      ]
    },
    {
      "children": [
        2
      ],
      "name": "RootNode (model correction matrix)"
    },
    {
      "children": [
        3,
        5
      ],
      "name": "Root"
    },
    {
      "children": [
        4
      ],
      "matrix": [
        1,
        0,
        0,
        0,
        0,
        1,
        0,
        0,
        0,
        0,
        1,
        0,
        -0,
        -1.9954599999999998,
        1.5109599999999999,
        1
      ],
      "name": "Cube.021"
    },
    {
      "mesh": 0,
      "name": "Cube.021_0"
    },
    {
      "children": [
        6
      ],
      "matrix": [
        1,
        0,
        0,
        0,
        0,
        1,
        0,
        0,
        0,
        0,
        1,
        0,
        -0,
        -1.9954599999999998,
        1.5109599999999999,
        1
      ],
      "name": "Cube.004"
    },
    {
      "mesh": 1,
      "name": "Cube.004_0"
    }
  ],
  "samplers": [
    {
      "magFilter": 9729,
      "minFilter": 9987,
      "wrapS": 10497,
      "wrapT": 10497
    }
  ],
  "scene": 0,
  "scenes": [
    {
      "name": "OSG_Scene",
      "nodes": [
        0
      ]
    }
  ],
  "textures": [
    {
      "sampler": 0,
      "source": 0
    },
    {
      "sampler": 0,
      "source": 1
    },
    {
      "sampler": 0,
      "source": 2
    }
  ]
}

