{
  "accessors": [
    {
      "bufferView": 2,
      "componentType": 5126,
      "count": 1375,
      "max": [
        16.458950042724609,
        9.0125303268432617,
        3.6515789031982422
      ],
      "min": [
        3.8037319183349609,
        -2.9658269882202148,
        -1.0836780071258545
      ],
      "type": "VEC3"
    },
    {
      "bufferView": 2,
      "byteOffset": 16500,
      "componentType": 5126,
      "count": 1375,
      "max": [
        0.9999154806137085,
        1,
        0.99999070167541504
      ],
      "min": [
        -0.9999961256980896,
        -0.99988871812820435,
        -0.99999570846557617
      ],
      "type": "VEC3"
    },
    {
      "bufferView": 3,
      "componentType": 5126,
      "count": 1375,
      "max": [
        0.99991482496261597,
        1,
        1,
        1
      ],
      "min": [
        -0.99997603893280029,
        -0.99999982118606567,
        -1,
        1
      ],
      "type": "VEC4"
    },
    {
      "bufferView": 1,
      "componentType": 5126,
      "count": 1375,
      "max": [
        1,
        0.99999988079071045
      ],
      "min": [
        0,
        0
      ],
      "type": "VEC2"
    },
    {
      "bufferView": 0,
      "componentType": 5125,
      "count": 4326,
      "max": [
        1374
      ],
      "min": [
        0
      ],
      "type": "SCALAR"
    },
    {
      "bufferView": 2,
      "byteOffset": 33000,
      "componentType": 5126,
      "count": 1568,
      "max": [
        20.301700592041016,
        8.7750043869018555,
        3.8723709583282471
      ],
      "min": [
        4.0774922370910645,
        6.4867467880249023,
        -0.4829728901386261
      ],
      "type": "VEC3"
    },
    {
      "bufferView": 2,
      "byteOffset": 51816,
      "componentType": 5126,
      "count": 1568,
      "max": [
        0.99995410442352295,
        0.99991029500961304,
        0.99993997812271118
      ],
      "min": [
        -0.99995559453964233,
        -0.99983042478561401,
        -0.99993997812271118
      ],
      "type": "VEC3"
    },
    {
      "bufferView": 3,
      "byteOffset": 22000,
      "componentType": 5126,
      "count": 1568,
      "max": [
        0.99998247623443604,
        0.99999284744262695,
        0.99994975328445435,
        1
      ],
      "min": [
        -0.99986755847930908,
        -0.99995595216751099,
        -0.99987703561782837,
        1
      ],
      "type": "VEC4"
    },
    {
      "bufferView": 1,
      "byteOffset": 11000,
      "componentType": 5126,
      "count": 1568,
      "max": [
        1,
        1
      ],
      "min": [
        0,
        0
      ],
      "type": "VEC2"
    },
    {
      "bufferView": 0,
      "byteOffset": 17304,
      "componentType": 5125,
      "count": 5076,
      "max": [
        1567
      ],
      "min": [
        0
      ],
      "type": "SCALAR"
    },
    {
      "bufferView": 2,
      "byteOffset": 70632,
      "componentType": 5126,
      "count": 1568,
      "max": [
        20.438070297241211,
        -0.23583050072193146,
        4.2954649925231934
      ],
      "min": [
        4.2138609886169434,
        -2.5240879058837891,
        -0.059880968183279037
      ],
      "type": "VEC3"
    },
    {
      "bufferView": 2,
      "byteOffset": 89448,
      "componentType": 5126,
      "count": 1568,
      "max": [
        0.99995410442352295,
        0.99991029500961304,
        0.99993997812271118
      ],
      "min": [
        -0.99995559453964233,
        -0.99983042478561401,
        -0.99993997812271118
      ],
      "type": "VEC3"
    },
    {
      "bufferView": 3,
      "byteOffset": 47088,
      "componentType": 5126,
      "count": 1568,
      "max": [
        0.99998247623443604,
        0.99999284744262695,
        0.99995076656341553,
        1
      ],
      "min": [
        -0.99986755847930908,
        -0.99995595216751099,
        -0.99987751245498657,
        1
      ],
      "type": "VEC4"
    },
    {
      "bufferView": 1,
      "byteOffset": 23544,
      "componentType": 5126,
      "count": 1568,
      "max": [
        1,
        1
      ],
      "min": [
        0,
        0
      ],
      "type": "VEC2"
    },
    {
      "bufferView": 0,
      "byteOffset": 37608,
      "componentType": 5125,
      "count": 5076,
      "max": [
        1567
      ],
      "min": [
        0
      ],
      "type": "SCALAR"
    }
  ],
  "asset": {
    "extras": {
      "author": "rakshaan (https://sketchfab.com/rakshaan)",
      "license": "CC-BY-4.0 (http://creativecommons.org/licenses/by/4.0/)",
      "source": "https://sketchfab.com/models/c9f86bbff8664954a22bef08545ff1f1",
      "title": "Space Ranger SR1"
    },
    "generator": "Sketchfab-3.19.2",
    "version": "2.0"
  },
  "bufferViews": [
    {
      "buffer": 0,
      "byteLength": 57912,
      "byteOffset": 0,
      "name": "floatBufferViews",
      "target": 34963
    },
    {
      "buffer": 0,
      "byteLength": 36088,
      "byteOffset": 57912,
      "byteStride": 8,
      "name": "floatBufferViews",
      "target": 34962
    },
    {
      "buffer": 0,
      "byteLength": 108264,
      "byteOffset": 94000,
      "byteStride": 12,
      "name": "floatBufferViews",
      "target": 34962
    },
    {
      "buffer": 0,
      "byteLength": 72176,
      "byteOffset": 202264,
      "byteStride": 16,
      "name": "floatBufferViews",
      "target": 34962
    }
  ],
  "buffers": [
    {
      "byteLength": 274440,
      "uri": "scene.bin"
    }
  ],
  "images": [
    {
      "uri": "textures/Weapons_normal.png"
    },
    {
      "uri": "textures/Weapons_baseColor.png"
    },
    {
      "uri": "textures/Weapons_metallicRoughness.png"
    },
    {
      "uri": "textures/Body_emissive.png"
    },
    {
      "uri": "textures/Body_normal.png"
    },
    {
      "uri": "textures/Body_baseColor.png"
    },
    {
      "uri": "textures/Body_metallicRoughness.png"
    }
  ],
  "materials": [
    {
      "doubleSided": true,
      "emissiveFactor": [
        1,
        1,
        1
      ],
      "emissiveTexture": {
        "index": 3,
        "texCoord": 0
      },
      "name": "Body",
      "normalTexture": {
        "index": 4,
        "scale": 1,
        "texCoord": 0
      },
      "pbrMetallicRoughness": {
        "baseColorFactor": [
          1,
          1,
          1,
          1
        ],
        "baseColorTexture": {
          "index": 5,
          "texCoord": 0
        },
        "metallicFactor": 1,
        "metallicRoughnessTexture": {
          "index": 6,
          "texCoord": 0
        },
        "roughnessFactor": 0.93999999999999995
      }
    },
    {
      "doubleSided": true,
      "emissiveFactor": [
        0,
        0,
        0
      ],
      "name": "Weapons",
      "normalTexture": {
        "index": 0,
        "scale": 1,
        "texCoord": 0
      },
      "pbrMetallicRoughness": {
        "baseColorFactor": [
          1,
          1,
          1,
          1
        ],
        "baseColorTexture": {
          "index": 1,
          "texCoord": 0
        },
        "metallicFactor": 1,
        "metallicRoughnessTexture": {
          "index": 2,
          "texCoord": 0
        },
        "roughnessFactor": 0.76000000000000001
      }
    }
  ],
  "meshes": [
    {
      "primitives": [
        {
          "attributes": {
            "NORMAL": 1,
            "POSITION": 0,
            "TANGENT": 2,
            "TEXCOORD_0": 3
          },
          "indices": 4,
          "material": 0,
          "mode": 4
        }
      ]
    },
    {
      "primitives": [
        {
          "attributes": {
            "NORMAL": 6,
            "POSITION": 5,
            "TANGENT": 7,
            "TEXCOORD_0": 8
          },
          "indices": 9,
          "material": 1,
          "mode": 4
        }
      ]
    },
    {
      "primitives": [
        {
          "attributes": {
            "NORMAL": 11,
            "POSITION": 10,
            "TANGENT": 12,
            "TEXCOORD_0": 13
          },
          "indices": 14,
          "material": 1,
          "mode": 4
        }
      ]
    }
  ],
  "nodes": [
    {
      "children": [
        1
      ],
      "name": "RootNode (gltf orientation matrix)",
      "rotation": [
        -0.70710678118654746,
        -0,
        -0,
        0.70710678118654757
      ]
    },
    {
      "children": [
        2
      ],
      "name": "RootNode (model correction matrix)"
    },
    {
      "children": [
        3,
        4,
        5
      ],
      "name": "SP_Showcase.unity_6.obj.cleaner.gles"
    },
    {
      "mesh": 0,
      "name": ""
    },
    {
      "mesh": 1,
      "name": ""
    },
    {
      "mesh": 2,
      "name": ""
    }
  ],
  "samplers": [
    {
      "magFilter": 9729,
      "minFilter": 9987,
      "wrapS": 10497,
      "wrapT": 10497
    }
  ],
  "scene": 0,
  "scenes": [
    {
      "name": "OSG_Scene",
      "nodes": [
        0
      ]
    }
  ],
  "textures": [
    {
      "sampler": 0,
      "source": 0
    },
    {
      "sampler": 0,
      "source": 1
    },
    {
      "sampler": 0,
      "source": 2
    },
    {
      "sampler": 0,
      "source": 3
    },
    {
      "sampler": 0,
      "source": 4
    },
    {
      "sampler": 0,
      "source": 5
    },
    {
      "sampler": 0,
      "source": 6
    }
  ]
}

